{
    "asset" : {
        "generator" : "Khronos glTF Blender I/O v3.3.32",
        "version" : "2.0"
    },
    "scene" : 0,
    "scenes" : [
        {
            "name" : "Scene",
            "nodes" : [
                0
            ]
        }
    ],
    "nodes" : [
        {
            "mesh" : 0,
            "name" : "Retopo_Sphere.002",
            "rotation" : [
                0,
                -0.21727515757083893,
                0,
                0.9761104583740234
            ],
            "scale" : [
                1.2995264530181885,
                1.299526333808899,
                1.2995264530181885
            ],
            "translation" : [
                -1.3566722869873047,
                -3.0701816082000732,
                -0.7165178656578064
            ]
        }
    ],
    "materials" : [
        {
            "doubleSided" : true,
            "name" : "Material.004",
            "normalTexture" : {
                "index" : 0
            },
            "pbrMetallicRoughness" : {
                "baseColorTexture" : {
                    "index" : 1
                },
                "metallicRoughnessTexture" : {
                    "index" : 2
                }
            }
        }
    ],
    "meshes" : [
        {
            "name" : "mesh.001",
            "primitives" : [
                {
                    "attributes" : {
                        "POSITION" : 0,
                        "NORMAL" : 1,
                        "TEXCOORD_0" : 2
                    },
                    "indices" : 3,
                    "material" : 0
                }
            ]
        }
    ],
    "textures" : [
        {
            "sampler" : 0,
            "source" : 0
        },
        {
            "sampler" : 0,
            "source" : 1
        },
        {
            "sampler" : 0,
            "source" : 2
        }
    ],
    "images" : [
        {
            "bufferView" : 4,
            "mimeType" : "image/jpeg",
            "name" : "exporttosubstance_Material.004_Normal"
        },
        {
            "bufferView" : 5,
            "mimeType" : "image/jpeg",
            "name" : "exporttosubstance_Material.004_BaseColor"
        },
        {
            "bufferView" : 6,
            "mimeType" : "image/jpeg",
            "name" : "exporttosubstance_Material.004_Metallic-exporttosubstance_Material.004_Roughness"
        }
    ],
    "accessors" : [
        {
            "bufferView" : 0,
            "componentType" : 5126,
            "count" : 28160,
            "max" : [
                1.175586223602295,
                1.6624597311019897,
                1.0192677974700928
            ],
            "min" : [
                -0.9078519344329834,
                -0.9976385235786438,
                -0.9176878929138184
            ],
            "type" : "VEC3"
        },
        {
            "bufferView" : 1,
            "componentType" : 5126,
            "count" : 28160,
            "type" : "VEC3"
        },
        {
            "bufferView" : 2,
            "componentType" : 5126,
            "count" : 28160,
            "type" : "VEC2"
        },
        {
            "bufferView" : 3,
            "componentType" : 5123,
            "count" : 42240,
            "type" : "SCALAR"
        }
    ],
    "bufferViews" : [
        {
            "buffer" : 0,
            "byteLength" : 337920,
            "byteOffset" : 0,
            "target" : 34962
        },
        {
            "buffer" : 0,
            "byteLength" : 337920,
            "byteOffset" : 337920,
            "target" : 34962
        },
        {
            "buffer" : 0,
            "byteLength" : 225280,
            "byteOffset" : 675840,
            "target" : 34962
        },
        {
            "buffer" : 0,
            "byteLength" : 84480,
            "byteOffset" : 901120,
            "target" : 34963
        },
        {
            "buffer" : 0,
            "byteLength" : 184077,
            "byteOffset" : 985600
        },
        {
            "buffer" : 0,
            "byteLength" : 91386,
            "byteOffset" : 1169680
        },
        {
            "buffer" : 0,
            "byteLength" : 449376,
            "byteOffset" : 1261068
        }
    ],
    "samplers" : [
        {
            "magFilter" : 9729,
            "minFilter" : 9987
        }
    ],
    "buffers" : [
        {
            "byteLength" : 1710444,
            "uri" : "data:application/octet-stream;base64,"
        }
    ]
}
