{
    "asset" : {
        "generator" : "Khronos glTF Blender I/O v3.3.32",
        "version" : "2.0"
    },
    "scene" : 0,
    "scenes" : [
        {
            "name" : "Scene",
            "nodes" : [
                0
            ]
        }
    ],
    "nodes" : [
        {
            "mesh" : 0,
            "name" : "Retopo_Sphere",
            "rotation" : [
                0.2654772102832794,
                -0.48351675271987915,
                -0.4014408588409424,
                0.731148898601532
            ],
            "scale" : [
                0.18652546405792236,
                0.18652547895908356,
                0.18652546405792236
            ],
            "translation" : [
                -1.460237741470337,
                -1.1910922527313232,
                -0.5889434814453125
            ]
        }
    ],
    "materials" : [
        {
            "doubleSided" : true,
            "name" : "Material.005",
            "normalTexture" : {
                "index" : 0
            },
            "pbrMetallicRoughness" : {
                "baseColorTexture" : {
                    "index" : 1
                },
                "metallicFactor" : 0,
                "metallicRoughnessTexture" : {
                    "index" : 2
                }
            }
        }
    ],
    "meshes" : [
        {
            "name" : "mesh",
            "primitives" : [
                {
                    "attributes" : {
                        "POSITION" : 0,
                        "NORMAL" : 1,
                        "TEXCOORD_0" : 2
                    },
                    "indices" : 3,
                    "material" : 0
                }
            ]
        }
    ],
    "textures" : [
        {
            "sampler" : 0,
            "source" : 0
        },
        {
            "sampler" : 0,
            "source" : 1
        },
        {
            "sampler" : 0,
            "source" : 2
        }
    ],
    "images" : [
        {
            "bufferView" : 4,
            "mimeType" : "image/jpeg",
            "name" : "fourpetalblend_Material_Normal.png"
        },
        {
            "bufferView" : 5,
            "mimeType" : "image/jpeg",
            "name" : "fourpetalblend_Material_BaseColor.png"
        },
        {
            "bufferView" : 6,
            "mimeType" : "image/jpeg",
            "name" : "fourpetalblend_Material_Roughness.png"
        }
    ],
    "accessors" : [
        {
            "bufferView" : 0,
            "componentType" : 5126,
            "count" : 55494,
            "max" : [
                2.076225996017456,
                1.5294862985610962,
                2.0633487701416016
            ],
            "min" : [
                -2.218395233154297,
                -0.9998330473899841,
                -2.1829636096954346
            ],
            "type" : "VEC3"
        },
        {
            "bufferView" : 1,
            "componentType" : 5126,
            "count" : 55494,
            "type" : "VEC3"
        },
        {
            "bufferView" : 2,
            "componentType" : 5126,
            "count" : 55494,
            "type" : "VEC2"
        },
        {
            "bufferView" : 3,
            "componentType" : 5123,
            "count" : 308118,
            "type" : "SCALAR"
        }
    ],
    "bufferViews" : [
        {
            "buffer" : 0,
            "byteLength" : 665928,
            "byteOffset" : 0,
            "target" : 34962
        },
        {
            "buffer" : 0,
            "byteLength" : 665928,
            "byteOffset" : 665928,
            "target" : 34962
        },
        {
            "buffer" : 0,
            "byteLength" : 443952,
            "byteOffset" : 1331856,
            "target" : 34962
        },
        {
            "buffer" : 0,
            "byteLength" : 616236,
            "byteOffset" : 1775808,
            "target" : 34963
        },
        {
            "buffer" : 0,
            "byteLength" : 18716,
            "byteOffset" : 2392044
        },
        {
            "buffer" : 0,
            "byteLength" : 49967,
            "byteOffset" : 2410760
        },
        {
            "buffer" : 0,
            "byteLength" : 5354,
            "byteOffset" : 2460728
        }
    ],
    "samplers" : [
        {
            "magFilter" : 9729,
            "minFilter" : 9987
        }
    ],
    "buffers" : [
        {
            "byteLength" : 2466084,
            "uri" : "data:application/octet-stream;base64,"
        }
    ]
}
